<svg width="443" height="144" viewBox="0 0 443 144" fill="none" xmlns="http://www.w3.org/2000/svg">
<path d="M442.28 141.71C442.28 142.77 441.97 143.63 441.58 143.63H0.7C0.32 143.63 0 142.77 0 141.71C0 140.65 0.31 139.79 0.7 139.79H441.58C441.96 139.79 442.28 140.65 442.28 141.71Z" fill="#66B330"/>
<path d="M1.85 72.41C2.8 74.65 4.38 76.55 6.37 77.9C7.37 78.57 8.46 79.11 9.64 79.47C10.81 79.83 12.06 80.03 13.35 80.03C14.99 80.03 16.57 79.71 18.02 79.13C19.46 78.55 20.77 77.7 21.89 76.66C21.89 76.66 21.9 76.64 21.91 76.63C21.97 76.57 22.03 76.5 22.08 76.43C22.12 76.38 22.16 76.34 22.2 76.29C22.24 76.23 22.28 76.16 22.31 76.09C22.34 76.03 22.38 75.97 22.41 75.91C22.44 75.85 22.45 75.78 22.48 75.71C22.5 75.64 22.53 75.56 22.55 75.49C22.56 75.43 22.57 75.37 22.57 75.31C22.58 75.22 22.59 75.14 22.6 75.05C22.6 75.04 22.6 75.03 22.6 75.02C22.6 74.97 22.59 74.92 22.58 74.86C22.58 74.78 22.57 74.69 22.55 74.61C22.54 74.54 22.52 74.47 22.5 74.4C22.48 74.33 22.46 74.26 22.43 74.19C22.4 74.12 22.36 74.05 22.33 73.98C22.3 73.92 22.27 73.86 22.23 73.8C22.18 73.73 22.13 73.66 22.07 73.6C22.04 73.56 22.01 73.52 21.98 73.48C21.98 73.48 21.96 73.47 21.95 73.46C21.87 73.38 21.79 73.31 21.71 73.25C21.67 73.22 21.64 73.19 21.61 73.16C21.5 73.08 21.37 73.02 21.25 72.96C21.24 72.96 21.23 72.95 21.22 72.94C21.08 72.88 20.94 72.84 20.79 72.81C20.69 72.79 20.6 72.79 20.5 72.78C20.45 72.78 20.4 72.76 20.34 72.76C20.2 72.76 20.06 72.78 19.91 72.8C19.85 72.81 19.8 72.83 19.74 72.85C19.66 72.87 19.57 72.89 19.49 72.93C19.43 72.96 19.37 72.99 19.31 73.02C19.24 73.06 19.17 73.09 19.11 73.13C19.05 73.17 18.99 73.22 18.93 73.27C18.88 73.31 18.84 73.34 18.79 73.38C18.08 74.05 17.24 74.59 16.32 74.96C15.4 75.33 14.4 75.53 13.34 75.53C12.24 75.53 11.19 75.31 10.24 74.91C8.81999 74.31 7.6 73.3 6.74 72.03C6.31 71.39 5.97 70.7 5.74 69.95C5.50999 69.2 5.38 68.41 5.38 67.58C5.38 66.48 5.6 65.43 6 64.48C6.6 63.06 7.61 61.84 8.88 60.98C9.52 60.55 10.21 60.21 10.96 59.98C11.71 59.75 12.5 59.62 13.33 59.62C14.41 59.62 15.42 59.83 16.35 60.21C17.28 60.59 18.13 61.15 18.84 61.84C18.88 61.88 18.93 61.91 18.97 61.95C19.03 62 19.1 62.06 19.17 62.1C19.23 62.14 19.3 62.17 19.37 62.21C19.43 62.24 19.49 62.28 19.56 62.31C19.64 62.34 19.72 62.36 19.8 62.39C19.86 62.41 19.91 62.43 19.97 62.44C20.11 62.47 20.25 62.48 20.4 62.48C20.4 62.48 20.4 62.48 20.41 62.48C20.43 62.48 20.45 62.48 20.47 62.48C20.6 62.48 20.73 62.47 20.86 62.44C20.96 62.42 21.05 62.39 21.14 62.35C21.19 62.33 21.24 62.32 21.28 62.31C21.42 62.25 21.55 62.18 21.67 62.1C21.69 62.09 21.71 62.07 21.73 62.05C21.83 61.98 21.93 61.9 22.02 61.81C22.02 61.81 22.03 61.81 22.04 61.8C22.08 61.76 22.1 61.72 22.13 61.68C22.19 61.61 22.25 61.54 22.3 61.46C22.34 61.4 22.37 61.34 22.4 61.28C22.44 61.21 22.47 61.14 22.5 61.07C22.53 61 22.55 60.93 22.57 60.85C22.59 60.78 22.61 60.72 22.63 60.65C22.65 60.56 22.65 60.47 22.66 60.38C22.66 60.33 22.68 60.28 22.68 60.23C22.68 60.23 22.68 60.22 22.68 60.21C22.68 60.11 22.66 60.01 22.65 59.91C22.65 59.86 22.65 59.81 22.63 59.76C22.61 59.68 22.58 59.59 22.55 59.51C22.53 59.45 22.52 59.39 22.5 59.34C22.48 59.28 22.44 59.23 22.41 59.18C22.37 59.11 22.33 59.03 22.29 58.96C22.26 58.92 22.23 58.88 22.19 58.84C22.13 58.76 22.07 58.68 22 58.61C22 58.61 22 58.6 21.99 58.59C20.87 57.51 19.55 56.64 18.08 56.04C16.62 55.44 15.01 55.11 13.34 55.11C11.62 55.11 9.97999 55.46 8.49 56.09C6.25 57.04 4.35 58.62 3 60.61C2.33 61.61 1.79 62.7 1.43 63.88C1.06 65.05 0.869995 66.3 0.869995 67.59C0.869995 69.31 1.22 70.95 1.85 72.45V72.41Z" fill="#1D1F1C"/>
<path d="M46.88 73.82L44.58 69.3H40.76C39.51 69.3 38.5 70.31 38.5 71.56C38.5 72.81 39.51 73.82 40.76 73.82H46.87H46.88Z" fill="#1D1F1C"/>
<path d="M53.24 76.37L43.33 56.85C43 56.02 42.19 55.43 41.24 55.43C40.29 55.43 39.48 56.02 39.14 56.86L29.23 76.37C29.07 76.68 28.98 77.02 28.98 77.39C28.98 78.64 29.99 79.65 31.24 79.65C32.12 79.65 32.87 79.14 33.25 78.41L41.23 62.71L44.58 69.3L46.87 73.81L49.2 78.4C49.57 79.13 50.33 79.64 51.21 79.64C52.46 79.64 53.47 78.63 53.47 77.38C53.47 77.01 53.37 76.67 53.22 76.36L53.24 76.37Z" fill="#1D1F1C"/>
<path d="M62.54 79.65C63.78 79.65 64.78 78.65 64.8 77.42V64.64C68.13 69.17 69.48 71.05 70.16 71.91C70.18 71.94 70.2 71.98 70.22 72.01L70.25 72.05C70.32 72.14 70.39 72.22 70.46 72.3C70.53 72.37 70.61 72.44 70.7 72.51C70.83 72.62 70.94 72.67 71.08 72.74C71.24 72.82 71.39 72.87 71.55 72.91C71.55 72.91 71.55 72.91 71.56 72.91C72.23 73.07 72.86 72.91 73.36 72.56C73.38 72.55 73.39 72.54 73.41 72.53C73.44 72.51 73.46 72.48 73.49 72.46C73.52 72.43 73.56 72.4 73.59 72.37C73.61 72.35 73.64 72.33 73.66 72.31C73.7 72.27 73.73 72.23 73.76 72.19C73.78 72.16 73.81 72.14 73.83 72.11C73.84 72.09 73.86 72.08 73.87 72.06L73.9 72.02C73.9 72.02 73.93 71.96 73.95 71.93C73.93 71.96 73.92 71.99 73.9 72.02L79.68 64.44V77.41C79.7 78.64 80.7 79.64 81.94 79.64C83.18 79.64 84.18 78.64 84.2 77.41V57.77V57.75C84.2 57.71 84.2 57.68 84.2 57.64C84.2 57.59 84.18 57.53 84.18 57.48C84.17 57.4 84.16 57.31 84.14 57.23C84.13 57.17 84.1 57.11 84.08 57.04C84.05 56.96 84.03 56.87 83.99 56.8C83.99 56.78 83.98 56.76 83.97 56.74C83.95 56.7 83.92 56.67 83.9 56.63C83.86 56.56 83.82 56.49 83.77 56.42C83.73 56.37 83.69 56.32 83.64 56.27C83.59 56.21 83.53 56.15 83.47 56.09C83.45 56.07 83.43 56.04 83.41 56.02C83.38 56 83.35 55.97 83.33 55.95C83.31 55.94 83.29 55.93 83.27 55.91C83.23 55.88 83.18 55.85 83.13 55.82C83.06 55.78 82.98 55.73 82.91 55.7C82.86 55.68 82.82 55.66 82.77 55.64C82.74 55.63 82.7 55.61 82.67 55.6C82.62 55.58 82.56 55.57 82.51 55.56C82.47 55.56 82.43 55.54 82.39 55.53C82.25 55.5 82.12 55.49 81.97 55.49C81.93 55.49 81.9 55.49 81.86 55.49C81.8 55.49 81.75 55.51 81.69 55.52C81.61 55.52 81.53 55.54 81.45 55.56C81.39 55.57 81.32 55.6 81.26 55.62C81.18 55.65 81.1 55.67 81.02 55.71C81 55.71 80.98 55.72 80.96 55.73C80.92 55.75 80.88 55.78 80.84 55.8C80.77 55.84 80.7 55.88 80.63 55.93C80.58 55.97 80.53 56.01 80.48 56.06C80.42 56.11 80.36 56.17 80.3 56.23C80.28 56.25 80.25 56.27 80.23 56.29C80.21 56.32 80.18 56.35 80.16 56.38V56.4H80.14L72.12 66.93L73.91 69.36C73.99 69.46 74.05 69.57 74.11 69.68C74.07 69.59 74.01 69.51 73.95 69.42C73.94 69.4 73.93 69.38 73.91 69.35L72.6 67.57L72.12 66.92L64.39 56.42C63.98 55.85 63.31 55.48 62.55 55.48C61.3 55.48 60.29 56.49 60.29 57.74C60.29 57.75 60.29 57.76 60.29 57.77V77.41C60.31 78.64 61.31 79.64 62.55 79.64L62.54 79.65ZM74.06 71.78C74.06 71.78 74.09 71.72 74.1 71.69C74.1 71.69 74.07 71.75 74.05 71.78H74.06Z" fill="#1D1F1C"/>
<path d="M102.78 72.01L102.81 72.05C102.88 72.14 102.95 72.22 103.02 72.3C103.09 72.37 103.17 72.44 103.26 72.51C103.39 72.62 103.5 72.67 103.64 72.74C103.8 72.82 103.95 72.87 104.11 72.91C104.11 72.91 104.11 72.91 104.12 72.91C104.79 73.07 105.42 72.91 105.92 72.56C105.94 72.55 105.95 72.54 105.97 72.53C106 72.51 106.02 72.48 106.05 72.46C106.08 72.43 106.12 72.4 106.15 72.38C106.17 72.36 106.2 72.34 106.22 72.32C106.26 72.28 106.29 72.24 106.32 72.2C106.34 72.17 106.37 72.15 106.39 72.12C106.4 72.1 106.42 72.09 106.43 72.07L106.46 72.03C106.46 72.03 106.49 71.97 106.51 71.94C106.51 71.94 106.48 72 106.46 72.03L112.24 64.45V77.42C112.26 78.65 113.26 79.65 114.5 79.65C115.74 79.65 116.74 78.65 116.76 77.42V57.78V57.76C116.76 57.72 116.76 57.69 116.76 57.65C116.76 57.6 116.74 57.54 116.74 57.49C116.73 57.41 116.72 57.32 116.7 57.24C116.69 57.18 116.66 57.12 116.64 57.05C116.61 56.97 116.59 56.88 116.55 56.81C116.55 56.79 116.54 56.77 116.53 56.75C116.51 56.71 116.48 56.68 116.46 56.64C116.42 56.57 116.38 56.5 116.33 56.43C116.29 56.38 116.25 56.33 116.2 56.28C116.15 56.22 116.09 56.16 116.03 56.1C116.01 56.08 115.99 56.05 115.97 56.03C115.94 56.01 115.91 55.98 115.89 55.96C115.87 55.95 115.85 55.94 115.83 55.92C115.79 55.89 115.74 55.86 115.69 55.83C115.62 55.79 115.54 55.74 115.47 55.71C115.42 55.69 115.38 55.67 115.33 55.65C115.3 55.64 115.26 55.62 115.23 55.61C115.18 55.59 115.12 55.58 115.07 55.57C115.03 55.57 114.99 55.55 114.95 55.54C114.81 55.51 114.68 55.5 114.53 55.5C114.49 55.5 114.46 55.5 114.42 55.5C114.36 55.5 114.31 55.52 114.25 55.53C114.17 55.53 114.09 55.55 114.01 55.57C113.95 55.58 113.88 55.61 113.82 55.63C113.74 55.66 113.66 55.68 113.58 55.72C113.56 55.72 113.54 55.73 113.52 55.74C113.48 55.76 113.44 55.79 113.4 55.81C113.33 55.85 113.26 55.89 113.19 55.94C113.14 55.98 113.09 56.02 113.03 56.07C112.97 56.12 112.91 56.18 112.85 56.24C112.83 56.26 112.8 56.28 112.78 56.3C112.76 56.33 112.73 56.36 112.71 56.39V56.41H112.69L104.67 66.94L106.46 69.37C106.54 69.47 106.6 69.58 106.66 69.69C106.62 69.6 106.56 69.52 106.5 69.43C106.49 69.41 106.48 69.39 106.46 69.36L105.15 67.58L104.67 66.93L96.94 56.43C96.53 55.86 95.86 55.49 95.1 55.49C93.85 55.49 92.84 56.5 92.84 57.75C92.84 57.76 92.84 57.77 92.84 57.78V77.42C92.86 78.65 93.86 79.65 95.1 79.65C96.34 79.65 97.34 78.65 97.36 77.42V64.64C100.7 69.17 102.04 71.06 102.72 71.91C102.74 71.94 102.76 71.98 102.78 72.01ZM106.62 71.77C106.62 71.77 106.65 71.71 106.66 71.68C106.66 71.68 106.63 71.74 106.61 71.77H106.62Z" fill="#1D1F1C"/>
<path d="M130.72 77.36C130.72 77.36 130.72 77.34 130.72 77.32V57.65C130.72 56.4 129.71 55.39 128.46 55.39C127.21 55.39 126.2 56.4 126.2 57.65V77.32C126.2 77.32 126.2 77.34 126.2 77.36C126.2 78.61 127.21 79.62 128.46 79.62C129.71 79.62 130.72 78.61 130.72 77.36Z" fill="#1D1F1C"/>
<path d="M157.93 79.65C159.15 79.65 160.14 78.68 160.18 77.47C160.18 77.47 160.18 77.42 160.18 77.39V77.37V57.72C160.18 56.47 159.17 55.46 157.92 55.46C156.67 55.46 155.66 56.47 155.66 57.72V71.23L142.97 56.27V56.29C142.92 56.23 142.88 56.17 142.83 56.12C142.8 56.09 142.77 56.07 142.74 56.04C142.66 55.97 142.58 55.9 142.5 55.84C142.49 55.84 142.48 55.83 142.47 55.82C142.24 55.67 141.98 55.56 141.69 55.5C141.54 55.47 141.39 55.45 141.24 55.45C141.09 55.45 140.94 55.47 140.79 55.5C140.74 55.5 140.7 55.53 140.65 55.54C140.55 55.57 140.46 55.59 140.37 55.63C140.32 55.65 140.27 55.68 140.22 55.71C140.14 55.75 140.06 55.79 139.99 55.83C139.94 55.86 139.9 55.91 139.85 55.94C139.79 55.99 139.72 56.04 139.66 56.1C139.61 56.15 139.58 56.2 139.53 56.25C139.48 56.31 139.42 56.37 139.38 56.43C139.34 56.49 139.31 56.55 139.28 56.6C139.24 56.67 139.2 56.73 139.17 56.8C139.14 56.86 139.12 56.93 139.1 57C139.08 57.07 139.05 57.14 139.03 57.22C139.01 57.29 139.01 57.36 139 57.43C139 57.5 138.98 57.56 138.97 57.63C138.97 57.66 138.97 57.69 138.97 57.71V77.38C138.97 78.63 139.98 79.64 141.23 79.64C142.48 79.64 143.49 78.63 143.49 77.38V63.87L156.18 78.83V78.81C156.59 79.31 157.21 79.63 157.91 79.63L157.93 79.65Z" fill="#1D1F1C"/>
<path d="M178.57 69.3C177.32 69.3 176.31 70.31 176.31 71.56C176.31 72.81 177.32 73.82 178.57 73.82H184.68L182.38 69.3H178.56H178.57Z" fill="#1D1F1C"/>
<path d="M191.29 77.39C191.29 77.02 191.19 76.68 191.04 76.37L181.13 56.85C180.8 56.02 179.99 55.43 179.04 55.43C178.09 55.43 177.28 56.02 176.94 56.86L167.03 76.37C166.87 76.68 166.78 77.02 166.78 77.39C166.78 78.64 167.79 79.65 169.04 79.65C169.92 79.65 170.67 79.14 171.05 78.41L179.03 62.71L182.38 69.3L184.67 73.81L187 78.4C187.37 79.13 188.13 79.64 189.01 79.64C190.26 79.64 191.27 78.63 191.27 77.38L191.29 77.39Z" fill="#1D1F1C"/>
<path d="M211.97 55.46H195.47C194.22 55.46 193.21 56.47 193.21 57.72C193.21 58.97 194.22 59.98 195.47 59.98H201.46V77.39C201.46 78.64 202.47 79.65 203.72 79.65C204.97 79.65 205.98 78.64 205.98 77.39V59.98H211.97C213.22 59.98 214.23 58.97 214.23 57.72C214.23 56.47 213.22 55.46 211.97 55.46Z" fill="#1D1F1C"/>
<path d="M227.01 69.3C225.76 69.3 224.75 70.31 224.75 71.56C224.75 72.81 225.76 73.82 227.01 73.82H233.12L230.82 69.3H227H227.01Z" fill="#1D1F1C"/>
<path d="M217.49 79.65C218.37 79.65 219.12 79.14 219.5 78.41L227.48 62.71L230.83 69.3L233.12 73.81L235.45 78.4C235.82 79.13 236.58 79.64 237.46 79.64C238.71 79.64 239.72 78.63 239.72 77.38C239.72 77.01 239.62 76.67 239.47 76.36L229.56 56.84C229.23 56.01 228.42 55.42 227.47 55.42C226.52 55.42 225.71 56.01 225.37 56.85L215.46 76.36C215.3 76.67 215.21 77.01 215.21 77.38C215.21 78.63 216.22 79.64 217.47 79.64L217.49 79.65Z" fill="#1D1F1C"/>
<path d="M24.79 91.94C24.79 91.9 24.79 91.87 24.79 91.83C24.79 91.78 24.77 91.72 24.77 91.67C24.76 91.59 24.75 91.5 24.73 91.42C24.72 91.36 24.69 91.3 24.67 91.23C24.64 91.15 24.62 91.06 24.58 90.99C24.58 90.97 24.57 90.95 24.56 90.93C24.54 90.89 24.51 90.86 24.49 90.82C24.45 90.75 24.41 90.68 24.36 90.61C24.32 90.56 24.28 90.51 24.23 90.46C24.18 90.4 24.12 90.34 24.06 90.28C24.04 90.26 24.02 90.23 24 90.21C23.97 90.19 23.94 90.16 23.92 90.14C23.9 90.13 23.88 90.12 23.86 90.1C23.82 90.07 23.77 90.04 23.72 90.01C23.65 89.97 23.57 89.92 23.5 89.89C23.45 89.87 23.41 89.85 23.36 89.83C23.33 89.82 23.29 89.8 23.26 89.79C23.21 89.77 23.15 89.76 23.1 89.75C23.06 89.75 23.02 89.73 22.98 89.72C22.84 89.69 22.71 89.68 22.56 89.68C22.52 89.68 22.49 89.68 22.45 89.68C22.39 89.68 22.34 89.7 22.28 89.71C22.2 89.71 22.12 89.73 22.04 89.75C21.98 89.76 21.91 89.79 21.85 89.81C21.77 89.84 21.69 89.86 21.61 89.9C21.59 89.9 21.57 89.91 21.55 89.92C21.51 89.94 21.47 89.97 21.43 89.99C21.36 90.03 21.29 90.07 21.22 90.12C21.17 90.16 21.12 90.2 21.07 90.25C21.01 90.3 20.95 90.36 20.89 90.42C20.87 90.44 20.84 90.46 20.82 90.48C20.8 90.51 20.77 90.54 20.75 90.57V90.59H20.73L12.71 101.12L14.5 103.55C14.58 103.65 14.64 103.76 14.7 103.87C14.66 103.78 14.6 103.7 14.54 103.61C14.53 103.59 14.52 103.57 14.5 103.54L13.19 101.76L12.71 101.11L4.98 90.61C4.57 90.04 3.90001 89.67 3.14001 89.67C1.89001 89.67 0.880005 90.68 0.880005 91.93C0.880005 91.94 0.880005 91.95 0.880005 91.96V111.6C0.900005 112.83 1.90001 113.83 3.14001 113.83C4.38001 113.83 5.38 112.83 5.4 111.6V98.82C8.73 103.35 10.08 105.23 10.76 106.09C10.78 106.12 10.8 106.16 10.82 106.19L10.85 106.23C10.92 106.32 10.99 106.4 11.06 106.48C11.13 106.55 11.21 106.62 11.3 106.69C11.43 106.8 11.54 106.85 11.68 106.92C11.84 107 11.99 107.05 12.15 107.09C12.15 107.09 12.15 107.09 12.16 107.09C12.83 107.25 13.46 107.09 13.96 106.74C13.98 106.73 13.99 106.72 14.01 106.71C14.04 106.69 14.06 106.66 14.09 106.64C14.12 106.61 14.16 106.58 14.19 106.55C14.21 106.53 14.24 106.51 14.26 106.49C14.3 106.45 14.33 106.41 14.36 106.37C14.38 106.34 14.41 106.32 14.43 106.29C14.44 106.27 14.46 106.26 14.47 106.24L14.5 106.2C14.5 106.2 14.53 106.14 14.55 106.11C14.53 106.14 14.52 106.17 14.5 106.2L20.28 98.62V111.59C20.3 112.82 21.3 113.82 22.54 113.82C23.78 113.82 24.78 112.82 24.8 111.59V91.95V91.93L24.79 91.94ZM14.65 105.96C14.65 105.96 14.68 105.9 14.69 105.87C14.69 105.87 14.66 105.93 14.64 105.96H14.65Z" fill="#1D1F1C"/>
<path d="M47.05 94.17C48.3 94.17 49.31 93.16 49.31 91.91C49.31 90.66 48.3 89.65 47.05 89.65H34.2C34.11 89.64 34.03 89.62 33.94 89.62C32.69 89.62 31.68 90.63 31.68 91.88C31.68 91.88 31.68 91.88 31.68 91.89C31.68 91.9 31.68 91.89 31.68 91.9V111.57C31.68 111.73 31.7 111.88 31.73 112.03C31.88 112.77 32.39 113.37 33.06 113.66C33.33 113.77 33.63 113.84 33.94 113.84H47.05C48.3 113.84 49.31 112.83 49.31 111.58C49.31 110.33 48.3 109.32 47.05 109.32H36.2V104.01H45.13C46.38 104.01 47.39 103 47.39 101.75C47.39 100.5 46.38 99.49 45.13 99.49H36.2V94.18H47.05V94.17Z" fill="#1D1F1C"/>
<path d="M74.06 91.91C74.06 90.66 73.05 89.65 71.8 89.65H55.3C54.05 89.65 53.04 90.66 53.04 91.91C53.04 93.16 54.05 94.17 55.3 94.17H61.29V111.58C61.29 112.83 62.3 113.84 63.55 113.84C64.8 113.84 65.81 112.83 65.81 111.58V94.17H71.8C73.05 94.17 74.06 93.16 74.06 91.91Z" fill="#1D1F1C"/>
<path d="M96.93 110.56L87.02 91.04C86.69 90.21 85.88 89.62 84.93 89.62C83.98 89.62 83.17 90.21 82.83 91.05L72.92 110.56C72.76 110.87 72.67 111.21 72.67 111.58C72.67 112.83 73.68 113.84 74.93 113.84C75.81 113.84 76.56 113.33 76.94 112.6L84.92 96.9L88.27 103.49L90.56 108L92.89 112.59C93.26 113.32 94.02 113.83 94.9 113.83C96.15 113.83 97.16 112.82 97.16 111.57C97.16 111.2 97.06 110.86 96.91 110.55L96.93 110.56Z" fill="#1D1F1C"/>
<path d="M84.46 103.49C83.21 103.49 82.2 104.5 82.2 105.75C82.2 107 83.21 108.01 84.46 108.01H90.57L88.27 103.49H84.45H84.46Z" fill="#1D1F1C"/>
<path d="M119.33 100.5C119.2 100.4 119.07 100.31 118.94 100.22C118.35 99.82 117.69 99.5 116.99 99.28C116.65 99.17 116.29 99.09 115.93 99.03C116.26 99.08 116.62 99.16 116.99 99.28C117.69 99.5 118.35 99.82 118.94 100.22C119.07 100.31 119.2 100.4 119.33 100.5C119.35 100.47 119.37 100.45 119.39 100.42C122.49 95.84 119.19 89.63 113.66 89.63H103.88C103.88 89.63 103.88 89.63 103.87 89.63C103.87 89.63 103.86 89.63 103.85 89.63C102.6 89.63 101.59 90.64 101.59 91.89C101.59 91.89 101.59 91.89 101.59 91.9C101.59 91.91 101.59 91.9 101.59 91.91V111.58C101.59 112.83 102.6 113.84 103.85 113.84H114.79C121.86 113.84 124.95 104.83 119.34 100.49L119.33 100.5ZM117.58 102.24C116.91 102.7 116.16 103.05 115.36 103.25C116.15 103.05 116.9 102.71 117.58 102.24ZM114.38 98.94C114.49 98.94 114.61 98.94 114.73 98.94H114.38ZM114.78 109.32H106.1V94.17H113.8C116.83 94.28 116.76 98.89 113.69 98.94H109.6C108.35 98.94 107.34 99.95 107.34 101.2C107.34 102.45 108.35 103.46 109.6 103.46C109.61 103.46 109.62 103.46 109.63 103.46H113.72C114.5 103.49 116.14 103.18 117.2 104.75C118.5 106.67 117.13 109.31 114.77 109.32H114.78ZM115.87 99.02C115.52 98.97 115.16 98.94 114.8 98.94C115.12 98.94 115.48 98.96 115.87 99.02Z" fill="#1D1F1C"/>
<path d="M139.81 89.07H139.66C132.66 89.15 127 94.85 127 101.87C127 108.93 132.72 114.68 139.81 114.68C146.9 114.68 152.61 108.93 152.62 101.89V101.87C152.62 94.79 146.88 89.06 139.81 89.06V89.07ZM139.81 110.17C138.66 110.17 137.58 109.94 136.58 109.52C133.62 108.27 131.52 105.33 131.52 101.88C131.52 97.29 135.24 93.59 139.81 93.59C144.41 93.59 148.1 97.32 148.1 101.88C148.1 106.47 144.38 110.17 139.81 110.17Z" fill="#1D1F1C"/>
<path d="M171.82 109.32H162.44V91.91C162.44 90.66 161.43 89.65 160.18 89.65C158.93 89.65 157.92 90.66 157.92 91.91V111.58C157.92 112.83 158.93 113.84 160.18 113.84H171.82C173.07 113.84 174.08 112.83 174.08 111.58C174.08 110.33 173.07 109.32 171.82 109.32Z" fill="#1D1F1C"/>
<path d="M181.94 89.58C180.69 89.58 179.68 90.59 179.68 91.84V111.51C179.68 111.51 179.68 111.53 179.68 111.55C179.68 112.8 180.69 113.81 181.94 113.81C183.19 113.81 184.2 112.8 184.2 111.55C184.2 111.54 184.2 111.53 184.2 111.51V91.84C184.2 90.59 183.19 89.58 181.94 89.58Z" fill="#1D1F1C"/>
<path d="M194.95 98.64C195.55 97.22 196.56 96 197.83 95.14C198.47 94.71 199.16 94.37 199.91 94.14C200.66 93.91 201.45 93.78 202.28 93.78C203.36 93.78 204.37 93.99 205.3 94.37C206.23 94.75 207.07 95.31 207.79 96C207.83 96.04 207.88 96.07 207.92 96.11C207.98 96.16 208.05 96.22 208.12 96.26C208.18 96.3 208.25 96.33 208.32 96.37C208.38 96.4 208.44 96.44 208.51 96.47C208.59 96.5 208.67 96.52 208.75 96.55C208.81 96.57 208.86 96.59 208.92 96.6C209.06 96.63 209.2 96.64 209.35 96.64C209.35 96.64 209.35 96.64 209.36 96.64C209.38 96.64 209.4 96.64 209.42 96.64C209.55 96.64 209.68 96.63 209.81 96.6C209.91 96.58 210 96.55 210.09 96.51C210.14 96.49 210.19 96.48 210.23 96.47C210.37 96.41 210.5 96.34 210.62 96.26C210.64 96.25 210.66 96.23 210.68 96.21C210.78 96.14 210.88 96.06 210.97 95.97C210.97 95.97 210.98 95.97 210.99 95.96C211.03 95.92 211.05 95.88 211.08 95.84C211.14 95.77 211.2 95.7 211.25 95.62C211.29 95.56 211.32 95.5 211.35 95.44C211.39 95.37 211.42 95.3 211.45 95.23C211.48 95.16 211.5 95.09 211.52 95.01C211.54 94.94 211.56 94.88 211.58 94.81C211.6 94.72 211.6 94.63 211.61 94.54C211.61 94.49 211.63 94.44 211.63 94.39C211.63 94.39 211.63 94.38 211.63 94.37C211.63 94.27 211.61 94.17 211.6 94.07C211.6 94.02 211.6 93.97 211.58 93.92C211.56 93.84 211.53 93.75 211.5 93.67C211.48 93.61 211.47 93.55 211.45 93.5C211.43 93.44 211.39 93.39 211.36 93.34C211.32 93.27 211.28 93.19 211.24 93.12C211.21 93.08 211.18 93.04 211.14 93C211.08 92.92 211.02 92.84 210.95 92.77C210.95 92.77 210.95 92.76 210.94 92.75C209.82 91.67 208.5 90.8 207.03 90.2C205.57 89.6 203.96 89.27 202.29 89.27C200.57 89.27 198.93 89.62 197.44 90.25C195.2 91.2 193.3 92.78 191.95 94.77C191.28 95.77 190.74 96.86 190.38 98.04C190.01 99.21 189.82 100.46 189.82 101.75C189.82 103.47 190.17 105.11 190.8 106.61C191.75 108.85 193.33 110.75 195.32 112.1C196.32 112.77 197.41 113.31 198.59 113.67C199.76 114.03 201.01 114.23 202.3 114.23C203.94 114.23 205.52 113.91 206.97 113.33C208.41 112.75 209.72 111.9 210.84 110.86C210.84 110.86 210.85 110.84 210.86 110.83C210.92 110.77 210.98 110.7 211.03 110.63C211.07 110.58 211.11 110.54 211.15 110.49C211.19 110.43 211.23 110.36 211.26 110.29C211.29 110.23 211.33 110.17 211.36 110.11C211.39 110.05 211.4 109.98 211.43 109.91C211.45 109.84 211.48 109.77 211.5 109.69C211.51 109.63 211.52 109.57 211.52 109.5C211.53 109.41 211.54 109.33 211.55 109.24C211.55 109.23 211.55 109.22 211.55 109.2C211.55 109.15 211.54 109.1 211.53 109.04C211.53 108.96 211.52 108.87 211.5 108.79C211.49 108.72 211.47 108.65 211.45 108.58C211.43 108.51 211.41 108.44 211.38 108.37C211.35 108.3 211.31 108.23 211.28 108.16C211.25 108.1 211.22 108.04 211.18 107.98C211.13 107.91 211.08 107.84 211.02 107.78C210.99 107.74 210.96 107.7 210.93 107.66C210.93 107.66 210.91 107.65 210.9 107.64C210.83 107.56 210.74 107.5 210.66 107.43C210.62 107.4 210.59 107.37 210.56 107.34C210.45 107.26 210.33 107.2 210.2 107.14C210.19 107.14 210.18 107.13 210.16 107.12C210.02 107.06 209.88 107.02 209.73 106.99C209.63 106.97 209.54 106.97 209.44 106.96C209.39 106.96 209.34 106.94 209.28 106.94C209.14 106.94 209 106.96 208.85 106.98C208.79 106.99 208.74 107.01 208.68 107.03C208.6 107.05 208.51 107.07 208.43 107.11C208.37 107.14 208.31 107.17 208.25 107.2C208.18 107.24 208.11 107.27 208.05 107.31C207.99 107.35 207.93 107.4 207.87 107.45C207.82 107.49 207.78 107.52 207.73 107.56C207.02 108.23 206.18 108.77 205.26 109.14C204.34 109.51 203.34 109.71 202.28 109.71C201.18 109.71 200.13 109.49 199.18 109.09C197.76 108.49 196.54 107.48 195.68 106.21C195.25 105.57 194.91 104.88 194.68 104.13C194.45 103.38 194.32 102.59 194.32 101.76C194.32 100.66 194.54 99.61 194.94 98.66L194.95 98.64Z" fill="#1D1F1C"/>
<path d="M227.32 103.49C226.07 103.49 225.06 104.5 225.06 105.75C225.06 107 226.07 108.01 227.32 108.01H233.43L231.13 103.49H227.31H227.32Z" fill="#1D1F1C"/>
<path d="M239.79 110.56L229.88 91.04C229.55 90.21 228.74 89.62 227.79 89.62C226.84 89.62 226.03 90.21 225.69 91.05L215.78 110.56C215.62 110.87 215.53 111.21 215.53 111.58C215.53 112.83 216.54 113.84 217.79 113.84C218.67 113.84 219.42 113.33 219.8 112.6L227.78 96.9L231.13 103.49L233.42 108L235.75 112.59C236.12 113.32 236.88 113.83 237.76 113.83C239.01 113.83 240.02 112.82 240.02 111.57C240.02 111.2 239.92 110.86 239.77 110.55L239.79 110.56Z" fill="#1D1F1C"/>
<path d="M290.22 3.08C290.55 3.28 290.88 3.51 291.19 3.77C292.66 4.91 293.95 6.37 294.92 7.94C294.93 7.94 294.94 7.93 294.96 7.92L302.06 6.18C302.06 6.18 301.98 6.08 301.95 6.04C301.52 5.55 301.04 5.12 300.6 4.67C299.68 3.81 298.7 3.1 297.74 2.48C296.8 1.82 295.84 1.31 294.92 0.890004C293.03 0.150004 291.18 -0.00999598 289.7 4.01749e-06C288.96 4.01749e-06 288.27 0.030004 287.71 0.120004C287.13 0.220004 286.65 0.250004 286.25 0.330004C285.64 0.460004 283.64 1.06 283.64 1.06C283.44 1.13 283.23 1.18 283.02 1.24C282.81 1.3 282.6 1.36 282.4 1.41C282.76 1.34 283.75 1.21 283.78 1.2C286.38 1.02 288.62 2.02 290.23 3.07L290.22 3.08Z" fill="black"/>
<path d="M284.36 1.7C284.09 1.7 283.83 1.71 283.56 1.74C278.97 2.19 277.08 5.27 273.76 11.37C273.76 11.38 273.75 11.39 273.74 11.4L274.1 11.11L274.71 10.62L277.94 8.15C278.03 7.91 278.38 7.24 279.53 6.14L279.57 6.1C280.28 5.42 281.95 3.83 284.05 2.91C285.18 2.41 286.27 2.18 287.3 2.21C286.34 1.89 285.35 1.7 284.35 1.7H284.36Z" fill="black"/>
<path d="M291.26 43.05C290.7 42.54 290.23 41.8 289.75 41.13C289.37 40.41 288.99 39.69 288.79 38.91C287.95 35.73 288.72 32.83 290 30.36C291.14 27.94 292.73 26.06 294.01 24.42C295.28 22.77 296.52 21.3 296.85 19.91C296.97 19.39 297.02 18.89 297.11 18.43C296.64 19.48 295.87 20.32 294.76 20.92C289.58 23.69 285.87 28.18 284.58 33.22C283.36 37.97 285.43 41.55 287.86 42.86C289.51 43.75 291.38 44.08 292.49 44.2C292.05 43.84 291.63 43.47 291.27 43.05H291.26Z" fill="black"/>
<path d="M313.42 31.3C313.37 30.89 313.28 30.46 313.21 30.04C313.13 29.7 312.98 29.27 312.87 28.9C311.79 25.78 310.1 22.86 308.44 20.1C308.23 19.73 308.02 19.46 307.81 19.02C307.58 18.6 307.47 18.15 307.37 17.73C307.22 16.9 307.08 16.19 306.88 15.46C306.44 14 305.91 12.65 305.24 11.31C304.63 9.93 303.9 8.79 303.17 7.63C303.08 7.51 302.98 7.39 302.89 7.27L295.53 9.07C295.53 9.07 295.53 9.09 295.54 9.09C296.81 11.38 297.95 14.41 297.55 16.99C297.55 17.04 297.48 18.85 297.3 20.02C297.05 21.63 295.91 23.18 294.77 24.97C294.21 25.86 293.53 26.79 292.96 27.79C292.33 28.76 291.69 29.8 291.11 30.93C290.83 31.49 290.62 32.06 290.36 32.64C290.13 33.2 289.97 34 289.83 34.54C289.64 35.9 289.6 37.26 289.99 38.59C290.16 39.26 290.49 39.88 290.81 40.51C291.23 41.07 291.56 41.67 292.16 42.22C292.57 42.7 293.05 43.11 293.55 43.49C293.97 43.8 295.16 44.55 295.81 44.86C298.63 46.03 302.09 46.1 305.13 45.03C308.1 43.84 310.79 41.43 312.25 38.53C312.95 37.05 313.33 35.4 313.46 33.75L313.5 32.51L313.43 31.31L313.42 31.3ZM302.63 44.78C301.93 44.89 301.23 44.94 300.55 44.94C294.99 44.94 290.95 41.49 290.95 36.73C290.95 30.95 296.48 25.79 301.45 24.78C302.19 24.63 302.94 24.55 303.69 24.55C308.89 24.55 312.81 28.03 312.81 32.64C312.81 38.09 307.86 43.99 302.62 44.79L302.63 44.78Z" fill="black"/>
<path d="M303.69 25.79C303.02 25.79 302.35 25.86 301.69 25.99C297.2 26.9 292.18 31.69 292.18 36.73C292.18 40.84 295.62 43.7 300.54 43.7C301.16 43.7 301.8 43.65 302.44 43.56C307.13 42.85 311.57 37.54 311.57 32.64C311.57 28.19 307.51 25.79 303.69 25.79Z" fill="black"/>
<path d="M278.99 14.58C283.73 15.35 288.83 19.21 291.38 21.39C292.18 20.83 293.02 20.3 293.9 19.83C295.06 19.21 295.73 18.27 295.93 16.97C296.41 13.9 294.14 9.75 292.74 7.91L292.58 7.68C292.31 7.26 292.21 7.05 292.21 7.05C290.65 7.02 289.12 7.13 287.22 7.41C276.15 9.01 272.61 14.46 271.32 17.54C272.47 15.96 274.81 13.91 278.98 14.59L278.99 14.58Z" fill="#66B330"/>
<path d="M259.83 28.99C259.95 28.59 260.35 28.48 260.66 28.29C263.08 26.85 265.62 25.66 268.14 24.44C268.76 24.14 269.15 24.18 269.56 24.78C270.53 26.18 271.61 27.5 272.06 29.2C272.24 29.9 272.06 30.14 271.34 29.98C267.71 29.22 264.03 29.1 260.34 29.18C260.16 29.18 259.96 29.22 259.84 28.98L259.83 28.99Z" fill="black"/>
<path d="M262.35 30.49C264.19 30.54 265.92 30.57 267.64 30.63C268.87 30.67 270.09 30.78 271.32 30.8C272.04 30.82 272.36 31.13 272.33 31.83C272.33 31.92 272.33 32.02 272.33 32.11C272.32 33.94 272.16 34.04 270.41 33.65C267.91 33.08 265.53 32.17 263.18 31.15C262.91 31.03 262.56 30.99 262.33 30.48L262.35 30.49Z" fill="black"/>
<path d="M355.01 111.36C354.21 109.82 353.32 108.29 352.39 106.77C350.57 103.74 348.64 100.8 346.67 97.97C342.73 92.28 338.72 87.05 334.37 82.46C332.21 80.13 330.1 77.85 328.03 75.72C325.98 73.56 323.98 71.49 322.02 69.53C314.3 61.61 307.32 55.48 301.73 52.25C298.96 50.62 296.5 49.79 294.8 49.72C293.95 49.64 293.3 49.79 292.89 49.92C292.47 50.05 292.27 50.16 292.27 50.16C292.27 50.16 291.44 50.55 290.04 51.57C289.35 52.09 288.49 52.73 287.68 53.66C287.33 54.1 286.8 54.8 287.48 55.13C288.03 55.45 288.8 55.67 289.56 55.91C290.33 56.15 291.16 56.39 292.01 56.73C292.82 57.1 293.84 57.43 294.38 58.55C294.94 60.48 295.21 62.61 295.64 64.82C296.44 69.25 297.28 74.32 298.73 79.55C298.94 80.18 299.15 80.82 299.36 81.46C299.57 81.95 299.95 82.74 300.28 83.27C300.95 84.37 301.79 85.59 302.68 86.75C304.45 89.08 306.43 91.55 308.36 94C312.36 98.69 317.55 103.07 322.79 107.56C328.08 112.04 333.73 116.47 339.62 120.75C345.52 124.96 351.62 129.36 357.94 132.91C358.51 133.28 359.52 133.31 360.08 133.1C360.69 132.88 361.05 132.33 361.22 131.56C361.53 130 361.21 128.18 360.81 126.45C359.99 122.95 358.67 119.56 357.27 116.22C356.56 114.61 355.86 112.84 354.99 111.36H355.01Z" fill="#66B330"/>
<path d="M435.42 131.69C433.89 130.01 431.34 128.19 431.91 127.91C432.48 127.62 440.88 127.03 432.98 125.54C425.08 124.05 363.35 101.97 356.5 97.52C349.65 93.08 335.37 61.14 318.32 49.77C315.95 48.19 312.24 46.24 308.85 44.36C307.78 45.19 306.6 45.89 305.32 46.39C301.94 47.57 298.25 47.51 295.07 46.2C294.76 46.05 294.15 45.85 294.13 45.9C293.8 46.56 290.65 48.51 289.98 48.95C288.7 49.84 287.24 50.9 286.21 52.31C285.71 53.01 285.39 53.8 285.43 54.57C285.44 54.76 285.47 54.96 285.51 55.15L285.69 55.94C285.81 56.47 285.94 57.01 286.07 57.56C286.58 59.77 287.13 62.09 287.69 64.5C288.23 66.92 288.78 69.42 289.26 72C289.49 73.29 289.72 74.6 289.84 75.97C289.87 76.32 289.89 76.67 289.9 77.04C289.9 77.43 289.92 77.77 289.76 78.38C289.51 79.12 289.29 79.75 288.8 80.5C288.35 81.24 287.4 81.94 286.49 82.1C285.58 82.29 284.78 82.19 284.06 82.06C282.61 81.78 281.34 81.28 280.1 80.77C277.64 79.73 275.36 78.5 273.18 77.4C272.12 76.87 270.96 76.28 270.17 76.12C270.1 76.1 270.05 76.1 270.01 76.1C269.89 76.34 269.77 76.86 269.71 77.36C269.42 79.49 269.51 81.61 269.06 83.77C268.62 85.86 266.94 88.37 265.75 89.67C268.7 96.27 272.06 101 276.7 106.72C280.7 111.65 285.4 115.55 290.52 118.44C290.68 119.33 291.05 121.26 291.36 121.62C291.76 122.09 290.87 122.23 290.14 122.04L290.33 122.08C290.33 122.08 277.16 120.54 275.61 120.24C274.07 119.94 272.69 119.38 269.76 116.71C266.83 114.04 265.71 112.5 264.94 112.32C264.17 112.14 263.51 112.75 263.29 112.69C263.07 112.63 261.45 111.85 260.84 111.5C260.14 111.1 258.59 112.97 259.72 113.85C260.85 114.73 261.99 115.37 262.35 115.48C262.71 115.59 262.82 115.85 262.54 115.93C262.26 116.01 261.54 116.38 261.72 117.11C261.9 117.84 262.39 119.05 263.78 119.25C264.58 119.36 266.27 118.91 267.14 119.21C268.01 119.51 270.76 120.71 271.67 121.32C272.24 121.7 274.63 123.88 275.35 124.65C276.07 125.42 278.24 126.84 278.6 126.96C279.01 127.11 280.19 127.29 280.06 125.94C279.96 124.92 278.51 124.3 277.52 123.7C276.57 123.13 275.3 122.38 275 122.23C274.5 121.98 274.51 121.36 275.28 121.52C276.05 121.68 291.06 123.97 292.02 123.92C292.98 123.87 294.93 123.55 295.31 122.77C295.54 122.29 295.88 121.63 296.06 121.11C300.64 122.96 305.45 124.09 310.32 124.47C310.34 124.8 310.39 125.31 310.6 125.86C310.92 126.69 311.4 127.16 311.17 127.96C310.77 129.35 306.04 132.28 304.25 133.28C302.48 134.27 295.66 136.82 295.22 137.06C294.78 137.3 289.29 136.8 287.41 136.32C285.53 135.84 283.96 135.45 283.21 135.71C282.61 135.92 282.08 136.89 282.76 137.3C282.99 137.44 281.55 137.48 280.33 137.54C279.11 137.6 278.16 138.02 278.12 138.75C278.09 139.33 278.78 140.38 280.26 140.44C281.74 140.5 283.11 140.5 283.57 140.36C284.14 140.19 285.3 140.2 284.8 140.46C284.3 140.72 284.48 140.64 284.39 140.79C284.3 140.94 283.88 142.3 285.89 142.09C287.9 141.88 289.92 140.66 291.01 140.52C292.14 140.37 295.07 140.18 298.42 140.97C301.77 141.77 303.53 141.66 303.92 141.54C304.4 141.39 304.81 140.71 304.27 139.8C303.64 138.74 299.8 139.02 298.56 139.13C297.41 139.24 297.15 138.89 297.75 138.19C298.35 137.49 309 132.34 310.78 131.22C312.56 130.09 313.37 129.24 313.83 128.72C314.19 128.31 315.72 125.9 316.38 124.74C327.02 124.89 336.28 123.51 336.28 123.51L341.37 123C340.64 122.47 339.91 121.93 339.19 121.4C333.31 117.07 327.53 112.83 321.98 108.63C319.21 106.52 316.53 104.4 313.94 102.25C312.65 101.17 311.4 100.07 310.16 98.97C308.96 97.79 307.7 96.64 306.71 95.42C304.68 92.9 302.74 90.56 300.93 88.09C300.03 86.86 299.19 85.65 298.4 84.26C297.99 83.55 297.78 83.03 297.45 82.21C297.24 81.5 297.04 80.79 296.84 80.1C295.56 74.56 295.15 69.49 294.59 65C294.3 62.76 294.16 60.67 293.75 58.81C293.49 58.08 292.59 57.6 291.83 57.23C291.03 56.87 290.22 56.6 289.46 56.34C288.69 56.06 287.97 55.86 287.28 55.42C287.13 55.3 286.97 55.21 286.88 54.96C286.8 54.75 286.85 54.51 286.92 54.35C287.05 53.99 287.27 53.74 287.47 53.48C288.33 52.52 289.2 51.88 289.91 51.36C291.33 50.34 292.19 49.95 292.19 49.95C292.19 49.95 292.4 49.83 292.84 49.69C293.27 49.55 293.96 49.39 294.84 49.45C296.62 49.51 299.11 50.33 301.98 51.86C304.84 53.41 308.2 55.53 311.81 58.28C315.4 61.05 319.4 64.26 323.49 68.05C325.57 69.91 327.66 71.93 329.79 74.06C331.97 76.15 334.06 78.42 336.27 80.72C340.77 85.3 344.93 90.77 348.81 96.55C350.76 99.45 352.66 102.46 354.46 105.58C355.37 107.13 356.26 108.72 357.1 110.4C358.01 112.07 358.64 113.69 359.33 115.44C359.71 116.42 360.08 117.41 360.43 118.41C362.61 118.95 373.01 119.77 377.42 119.91C382.16 120.06 386.24 118.67 388.78 120.22C391.32 121.77 431.06 133.14 434.04 134.19C437.02 135.24 436.95 133.39 435.42 131.71V131.69Z" fill="#66B330"/>
<path d="M292.37 45.69C292.37 45.69 289.03 45.48 287 44.38C284.08 42.8 281.57 38.59 282.98 33.06C283.21 32.15 283.53 31.26 283.9 30.38C285.4 26.88 288 23.75 291.38 21.37C290.69 20.78 289.81 20.07 288.81 19.34C288.81 19.34 288.81 19.34 288.81 19.33C286.1 17.34 282.58 14.92 279.13 14.36C274.79 13.65 272.43 15.89 271.34 17.5C271.34 17.5 271.33 17.52 271.32 17.52C270.66 18.43 270.39 19.18 270.39 19.18C269.84 20.67 269.62 22.7 270.77 24.17C271.85 25.55 274.12 29.92 273.23 35.35C273.11 36.09 272.81 36.74 272.39 37.36C271.07 39.15 268.72 40.76 266.52 43.89C263.85 47.58 261.37 53.42 261.17 64.39C261.02 72.38 262.48 78.48 263.7 83.69C264.15 85.6 264.71 86.98 265.01 87.72C265.05 87.83 265.1 87.93 265.15 88.02C265.07 87.83 265.03 87.75 265.02 87.72C265.61 86.69 266.53 85.1 266.81 83.3C267.11 81.57 267.06 79.38 267.36 77.02C267.45 76.41 267.52 75.78 267.9 74.96C268.1 74.56 268.52 74.01 269.17 73.77C269.8 73.54 270.32 73.61 270.71 73.68C272.25 74.04 273.24 74.65 274.39 75.2C276.61 76.33 278.82 77.54 281.14 78.52C282.29 79 283.48 79.45 284.6 79.67C285.16 79.78 285.7 79.81 286.08 79.73C286.46 79.64 286.66 79.51 286.92 79.14C287.16 78.79 287.41 78.17 287.58 77.67C287.6 77.65 287.63 77.31 287.62 77.05C287.62 76.76 287.6 76.46 287.57 76.16C287.46 74.92 287.27 73.65 287.05 72.39C286.62 69.87 286.11 67.38 285.6 64.97C285.07 62.56 284.56 60.24 284.08 58.03C283.96 57.48 283.84 56.93 283.72 56.39L283.55 55.58C283.49 55.24 283.45 54.9 283.46 54.56C283.49 53.17 284.14 52.02 284.83 51.17C286.26 49.46 287.92 48.52 289.34 47.72C290.05 47.34 290.72 46.99 291.34 46.67C291.65 46.51 291.87 46.33 292.1 46.18C292.2 46.11 292.64 45.8 292.75 45.73C292.4 45.68 292.38 45.7 292.38 45.7L292.37 45.69ZM276.95 19.34C278.26 19.41 281.94 19.75 281.87 21.06C281.8 22.37 278.02 24.16 276.71 24.1C275.4 24.04 274.39 22.92 274.45 21.6C274.52 20.29 275.64 19.28 276.95 19.34Z" fill="#E20717"/>
<path d="M276.95 19.34C275.64 19.27 274.52 20.28 274.45 21.6C274.38 22.91 275.39 24.03 276.71 24.1C278.03 24.17 281.81 22.38 281.87 21.06C281.94 19.75 278.26 19.41 276.95 19.34ZM277.11 23.39C276.19 23.39 275.44 22.64 275.44 21.72C275.44 20.8 276.19 20.05 277.11 20.05C278.03 20.05 278.78 20.8 278.78 21.72C278.78 22.64 278.03 23.39 277.11 23.39Z" fill="white"/>
<path d="M277.11 23.39C278.032 23.39 278.78 22.6423 278.78 21.72C278.78 20.7977 278.032 20.05 277.11 20.05C276.188 20.05 275.44 20.7977 275.44 21.72C275.44 22.6423 276.188 23.39 277.11 23.39Z" fill="black"/>
<path d="M315.42 26.8C315.26 25.92 315.13 25.03 314.94 24.16C314.69 23.31 314.43 22.46 314.18 21.62C313.84 20.78 313.47 19.96 313.09 19.16C312.69 18.44 312.28 17.79 311.88 17.12C311.39 16.3 310.91 15.75 310.42 15.1C309.91 14.49 309.35 13.94 308.84 13.39C308.29 12.87 307.73 12.39 307.2 11.94C307.02 11.8 306.83 11.68 306.65 11.55C307.19 12.71 307.68 13.98 308.07 15.28C308.29 16.05 308.45 16.89 308.58 17.63C308.7 18.36 309.04 18.87 309.5 19.62C311.17 22.42 312.89 25.34 314.05 28.67C314.18 29.11 314.31 29.49 314.43 29.98C314.5 30.41 314.59 30.82 314.64 31.25L314.73 32.63L314.69 33.97C314.67 34.23 314.64 34.48 314.61 34.74C314.86 33.91 315.08 33.04 315.27 32.17C315.36 31.28 315.47 30.39 315.52 29.49C315.49 28.6 315.5 27.69 315.42 26.79V26.8Z" fill="#66B330"/>
</svg>
